<?xml version="1.0" encoding="UTF-8"?>
<svg width="700pt" height="700pt" version="1.1" viewBox="0 0 700 700" xmlns="http://www.w3.org/2000/svg" xmlns:xlink="http://www.w3.org/1999/xlink">
 <defs>
  <symbol id="u" overflow="visible">
   <path d="m3.7812-0.21875c-0.19922 0.09375-0.40234 0.16797-0.60938 0.21875-0.21094 0.050781-0.42969 0.078125-0.65625 0.078125-0.6875 0-1.2344-0.1875-1.6406-0.5625-0.39844-0.38281-0.59375-0.90625-0.59375-1.5625s0.19531-1.1758 0.59375-1.5625c0.40625-0.38281 0.95312-0.57812 1.6406-0.57812 0.22656 0 0.44531 0.027344 0.65625 0.078125 0.20703 0.054687 0.41016 0.13281 0.60938 0.23438v0.84375c-0.19922-0.13281-0.39844-0.23438-0.59375-0.29688-0.1875-0.0625-0.38672-0.09375-0.59375-0.09375-0.375 0-0.67188 0.125-0.89062 0.375-0.21875 0.24219-0.32812 0.57422-0.32812 1 0 0.41797 0.10938 0.75 0.32812 1 0.21875 0.24219 0.51562 0.35938 0.89062 0.35938 0.20703 0 0.40625-0.03125 0.59375-0.09375 0.19531-0.0625 0.39453-0.16016 0.59375-0.29688z"/>
  </symbol>
  <symbol id="c" overflow="visible">
   <path d="m2.7656-2.25c-0.085937-0.039062-0.17188-0.066406-0.26562-0.078125-0.085938-0.019531-0.16797-0.03125-0.25-0.03125-0.25 0-0.44922 0.085937-0.59375 0.25-0.13672 0.15625-0.20312 0.38672-0.20312 0.6875v1.4219h-0.98438v-3.0781h0.98438v0.5c0.13281-0.19531 0.28125-0.34375 0.4375-0.4375 0.16406-0.09375 0.36328-0.14062 0.59375-0.14062h0.10938c0.039062 0 0.097656 0.007812 0.17188 0.015625z"/>
  </symbol>
  <symbol id="a" overflow="visible">
   <path d="m3.5469-1.5469v0.28125h-2.2969c0.019531 0.23047 0.10156 0.40234 0.25 0.51562 0.14453 0.11719 0.34375 0.17188 0.59375 0.17188 0.20703 0 0.42188-0.03125 0.64062-0.09375s0.44141-0.15625 0.67188-0.28125v0.76562c-0.23047 0.085938-0.46484 0.14844-0.70312 0.1875-0.23047 0.050781-0.46094 0.078125-0.6875 0.078125-0.5625 0-1-0.14062-1.3125-0.42188-0.30469-0.28125-0.45312-0.67969-0.45312-1.2031 0-0.5 0.14844-0.89062 0.45312-1.1719 0.30078-0.28906 0.71875-0.4375 1.25-0.4375 0.48828 0 0.875 0.14844 1.1562 0.4375 0.28906 0.29297 0.4375 0.68359 0.4375 1.1719zm-1-0.32812c0-0.1875-0.058594-0.33594-0.17188-0.45312-0.10547-0.11328-0.24609-0.17188-0.42188-0.17188-0.19922 0-0.35938 0.054688-0.48438 0.15625-0.11719 0.10547-0.18359 0.26172-0.20312 0.46875z"/>
  </symbol>
  <symbol id="f" overflow="visible">
   <path d="m1.8594-1.3906c-0.21094 0-0.36719 0.039063-0.46875 0.10938-0.10547 0.074219-0.15625 0.17969-0.15625 0.3125 0 0.125 0.039063 0.22656 0.125 0.29688 0.082031 0.0625 0.19531 0.09375 0.34375 0.09375 0.1875 0 0.34375-0.0625 0.46875-0.1875 0.13281-0.13281 0.20312-0.30469 0.20312-0.51562v-0.10938zm1.5-0.375v1.7656h-0.98438v-0.45312c-0.13672 0.1875-0.28906 0.32422-0.45312 0.40625-0.16797 0.082031-0.37109 0.125-0.60938 0.125-0.3125 0-0.57031-0.09375-0.76562-0.28125-0.19922-0.1875-0.29688-0.42578-0.29688-0.71875 0-0.36328 0.11719-0.62891 0.35938-0.79688 0.25-0.16406 0.64062-0.25 1.1719-0.25h0.59375v-0.078125c0-0.15625-0.0625-0.26953-0.1875-0.34375-0.125-0.070313-0.32031-0.10938-0.57812-0.10938-0.21094 0-0.40625 0.023438-0.59375 0.0625-0.17969 0.042969-0.34375 0.10547-0.5 0.1875v-0.75c0.20703-0.050781 0.41406-0.085938 0.625-0.10938 0.21875-0.03125 0.42969-0.046875 0.64062-0.046875 0.5625 0 0.96094 0.10938 1.2031 0.32812 0.25 0.21875 0.375 0.57422 0.375 1.0625z"/>
  </symbol>
  <symbol id="b" overflow="visible">
   <path d="m1.5469-3.9531v0.875h1.0156v0.70312h-1.0156v1.2969c0 0.14844 0.023437 0.24609 0.078125 0.29688 0.0625 0.054688 0.17578 0.078125 0.34375 0.078125h0.51562v0.70312h-0.84375c-0.39844 0-0.67969-0.078125-0.84375-0.23438-0.15625-0.16406-0.23438-0.44531-0.23438-0.84375v-1.2969h-0.48438v-0.70312h0.48438v-0.875z"/>
  </symbol>
  <symbol id="k" overflow="visible">
   <path d="m2.5781-2.6406v-1.6406h0.98438v4.2812h-0.98438v-0.45312c-0.13672 0.1875-0.28906 0.32422-0.45312 0.40625-0.16797 0.082031-0.35547 0.125-0.5625 0.125-0.38672 0-0.70312-0.14844-0.95312-0.45312-0.24219-0.30078-0.35938-0.69141-0.35938-1.1719 0-0.46875 0.11719-0.85156 0.35938-1.1562 0.25-0.30078 0.56641-0.45312 0.95312-0.45312 0.20703 0 0.39453 0.042969 0.5625 0.125 0.16406 0.085938 0.31641 0.21484 0.45312 0.39062zm-0.65625 2c0.20703 0 0.36719-0.070313 0.48438-0.21875 0.11328-0.15625 0.17188-0.38281 0.17188-0.6875 0-0.28906-0.058594-0.50781-0.17188-0.65625-0.11719-0.15625-0.27734-0.23438-0.48438-0.23438-0.21094 0-0.37109 0.078125-0.48438 0.23438-0.10547 0.14844-0.15625 0.36719-0.15625 0.65625 0 0.30469 0.050781 0.53125 0.15625 0.6875 0.11328 0.14844 0.27344 0.21875 0.48438 0.21875z"/>
  </symbol>
  <symbol id="j" overflow="visible">
   <path d="m2.1094-0.64062c0.21875 0 0.37891-0.070313 0.48438-0.21875 0.11328-0.15625 0.17188-0.38281 0.17188-0.6875 0-0.28906-0.058594-0.50781-0.17188-0.65625-0.10547-0.15625-0.26562-0.23438-0.48438-0.23438-0.21094 0-0.37109 0.078125-0.48438 0.23438-0.11719 0.14844-0.17188 0.36719-0.17188 0.65625 0 0.29297 0.054687 0.51562 0.17188 0.67188 0.11328 0.15625 0.27344 0.23438 0.48438 0.23438zm-0.65625-2c0.13281-0.17578 0.28516-0.30469 0.45312-0.39062 0.16406-0.082031 0.35938-0.125 0.57812-0.125 0.375 0 0.67969 0.15234 0.92188 0.45312 0.25 0.30469 0.375 0.6875 0.375 1.1562 0 0.48047-0.125 0.87109-0.375 1.1719-0.24219 0.30469-0.54688 0.45312-0.92188 0.45312-0.21875 0-0.41406-0.042969-0.57812-0.125-0.16797-0.082031-0.32031-0.21875-0.45312-0.40625v0.45312h-0.98438v-4.2812h0.98438z"/>
  </symbol>
  <symbol id="e" overflow="visible">
   <path d="m0.0625-3.0781h1l0.82812 2.0938 0.70312-2.0938h0.98438l-1.2969 3.375c-0.13672 0.34375-0.29297 0.58203-0.46875 0.71875-0.16797 0.13281-0.39062 0.20312-0.67188 0.20312h-0.57812v-0.65625h0.3125c0.16406 0 0.28516-0.027344 0.35938-0.078125 0.082031-0.054687 0.14453-0.14844 0.1875-0.28125l0.015625-0.078125z"/>
  </symbol>
  <symbol id="i" overflow="visible">
   <path d="m0.51562-4.1094h2.8594v0.79688h-1.7969v0.76562h1.6875v0.79688h-1.6875v0.95312h1.8594v0.79688h-2.9219z"/>
  </symbol>
  <symbol id="h" overflow="visible">
   <path d="m0.4375-1.2031v-1.875h1v0.29688c0 0.16797-0.007812 0.38281-0.015625 0.64062v0.5c0 0.25 0.003906 0.43359 0.015625 0.54688 0.019531 0.10547 0.046875 0.17969 0.078125 0.21875 0.039063 0.074219 0.09375 0.125 0.15625 0.15625s0.13281 0.046875 0.21875 0.046875c0.20703 0 0.36719-0.078125 0.48438-0.23438 0.125-0.15625 0.1875-0.375 0.1875-0.65625v-1.5156h0.98438v3.0781h-0.98438v-0.45312c-0.15625 0.1875-0.32031 0.32422-0.48438 0.40625-0.16797 0.082031-0.35156 0.125-0.54688 0.125-0.35547 0-0.625-0.10938-0.8125-0.32812s-0.28125-0.53516-0.28125-0.95312z"/>
  </symbol>
  <symbol id="g" overflow="visible">
   <path d="m2.9688-2.9844v0.79688c-0.13672-0.09375-0.27344-0.16016-0.40625-0.20312-0.13672-0.039063-0.27734-0.0625-0.42188-0.0625-0.27344 0-0.48438 0.085937-0.64062 0.25-0.15625 0.15625-0.23438 0.375-0.23438 0.65625 0 0.29297 0.078125 0.52344 0.23438 0.6875 0.15625 0.15625 0.36719 0.23438 0.64062 0.23438 0.15625 0 0.30078-0.019531 0.4375-0.0625 0.14453-0.050781 0.27344-0.11719 0.39062-0.20312v0.79688c-0.15625 0.0625-0.3125 0.10156-0.46875 0.125-0.15625 0.03125-0.32031 0.046875-0.48438 0.046875-0.55469 0-0.98438-0.14062-1.2969-0.42188-0.3125-0.28906-0.46875-0.69141-0.46875-1.2031 0-0.5 0.15625-0.89062 0.46875-1.1719 0.3125-0.28906 0.74219-0.4375 1.2969-0.4375 0.16406 0 0.32812 0.015625 0.48438 0.046875 0.15625 0.023437 0.3125 0.0625 0.46875 0.125z"/>
  </symbol>
  <symbol id="t" overflow="visible">
   <path d="m0.46875-4.2812h0.98438v4.2812h-0.98438z"/>
  </symbol>
  <symbol id="s" overflow="visible">
   <path d="m1.4531-0.45312v1.625h-0.98438v-4.25h0.98438v0.4375c0.13281-0.17578 0.28516-0.30469 0.45312-0.39062 0.16406-0.082031 0.35938-0.125 0.57812-0.125 0.375 0 0.67969 0.15234 0.92188 0.45312 0.25 0.30469 0.375 0.6875 0.375 1.1562 0 0.48047-0.125 0.87109-0.375 1.1719-0.24219 0.30469-0.54688 0.45312-0.92188 0.45312-0.21875 0-0.41406-0.042969-0.57812-0.125-0.16797-0.082031-0.32031-0.21875-0.45312-0.40625zm0.65625-1.9844c-0.21094 0-0.37109 0.078125-0.48438 0.23438-0.11719 0.14844-0.17188 0.36719-0.17188 0.65625 0 0.29297 0.054687 0.51562 0.17188 0.67188 0.11328 0.15625 0.27344 0.23438 0.48438 0.23438 0.21875 0 0.37891-0.070313 0.48438-0.21875 0.11328-0.15625 0.17188-0.38281 0.17188-0.6875 0-0.28906-0.058594-0.50781-0.17188-0.65625-0.10547-0.15625-0.26562-0.23438-0.48438-0.23438z"/>
  </symbol>
  <symbol id="r" overflow="visible">
   <path d="m2.5-4.2812v0.64062h-0.54688c-0.13672 0-0.23438 0.027344-0.29688 0.078125-0.054688 0.054688-0.078125 0.14062-0.078125 0.26562v0.21875h0.84375v0.70312h-0.84375v2.375h-0.98438v-2.375h-0.48438v-0.70312h0.48438v-0.21875c0-0.33203 0.09375-0.57812 0.28125-0.73438 0.1875-0.16406 0.47656-0.25 0.875-0.25z"/>
  </symbol>
  <symbol id="d" overflow="visible">
   <path d="m1.9375-2.4531c-0.21875 0-0.38672 0.078125-0.5 0.23438-0.11719 0.15625-0.17188 0.38281-0.17188 0.67188 0 0.30469 0.054687 0.53125 0.17188 0.6875 0.11328 0.15625 0.28125 0.23438 0.5 0.23438s0.38281-0.078125 0.5-0.23438c0.11328-0.15625 0.17188-0.38281 0.17188-0.6875 0-0.28906-0.058594-0.51562-0.17188-0.67188-0.11719-0.15625-0.28125-0.23438-0.5-0.23438zm0-0.70312c0.53125 0 0.94141 0.14844 1.2344 0.4375 0.30078 0.28125 0.45312 0.67188 0.45312 1.1719 0 0.51172-0.15234 0.91406-0.45312 1.2031-0.29297 0.28125-0.70312 0.42188-1.2344 0.42188s-0.94922-0.14062-1.25-0.42188c-0.29297-0.28906-0.4375-0.69141-0.4375-1.2031 0-0.5 0.14453-0.89062 0.4375-1.1719 0.30078-0.28906 0.71875-0.4375 1.25-0.4375z"/>
  </symbol>
  <symbol id="q" overflow="visible">
   <path d="m3.3281-2.5781c0.125-0.1875 0.26953-0.32812 0.4375-0.42188 0.17578-0.10156 0.36719-0.15625 0.57812-0.15625 0.35156 0 0.625 0.10938 0.8125 0.32812s0.28125 0.53906 0.28125 0.95312v1.875h-1v-1.6094-0.0625-0.125c0-0.21875-0.03125-0.375-0.09375-0.46875-0.0625-0.10156-0.16797-0.15625-0.3125-0.15625-0.1875 0-0.33594 0.078125-0.4375 0.23438-0.09375 0.15625-0.14062 0.38281-0.14062 0.67188v1.5156h-1v-1.6094c0-0.34375-0.03125-0.5625-0.09375-0.65625-0.054687-0.10156-0.15625-0.15625-0.3125-0.15625-0.1875 0-0.33594 0.078125-0.4375 0.23438-0.10547 0.15625-0.15625 0.38281-0.15625 0.67188v1.5156h-0.98438v-3.0781h0.98438v0.4375c0.125-0.16406 0.26562-0.28906 0.42188-0.375 0.15625-0.09375 0.32812-0.14062 0.51562-0.14062 0.21875 0 0.40625 0.054688 0.5625 0.15625 0.16406 0.10547 0.28906 0.24609 0.375 0.42188z"/>
  </symbol>
  <symbol id="p" overflow="visible">
   <path d="m3.5781-1.875v1.875h-1v-1.4375c0-0.26953-0.007813-0.45312-0.015625-0.54688-0.011719-0.10156-0.03125-0.17969-0.0625-0.23438-0.03125-0.0625-0.085938-0.10938-0.15625-0.14062-0.0625-0.039063-0.13672-0.0625-0.21875-0.0625-0.21094 0-0.375 0.085937-0.5 0.25-0.11719 0.15625-0.17188 0.375-0.17188 0.65625v1.5156h-0.98438v-4.2812h0.98438v1.6406c0.15625-0.17578 0.31641-0.30469 0.48438-0.39062 0.16406-0.082031 0.34766-0.125 0.54688-0.125 0.35156 0 0.625 0.10938 0.8125 0.32812s0.28125 0.53906 0.28125 0.95312z"/>
  </symbol>
  <symbol id="o" overflow="visible">
   <path d="m0.51562-4.1094h1.1875l1.5 2.8125v-2.8125h1v4.1094h-1.1875l-1.5-2.8281v2.8281h-1z"/>
  </symbol>
  <symbol id="n" overflow="visible">
   <path d="m3.5781-1.875v1.875h-1v-1.4375c0-0.26953-0.007813-0.45312-0.015625-0.54688-0.011719-0.10156-0.03125-0.17969-0.0625-0.23438-0.03125-0.0625-0.085938-0.10938-0.15625-0.14062-0.0625-0.039063-0.13672-0.0625-0.21875-0.0625-0.21094 0-0.375 0.085937-0.5 0.25-0.11719 0.15625-0.17188 0.375-0.17188 0.65625v1.5156h-0.98438v-3.0781h0.98438v0.4375c0.15625-0.17578 0.31641-0.30469 0.48438-0.39062 0.16406-0.082031 0.34766-0.125 0.54688-0.125 0.35156 0 0.625 0.10938 0.8125 0.32812s0.28125 0.53906 0.28125 0.95312z"/>
  </symbol>
  <symbol id="m" overflow="visible">
   <path d="m0.51562-4.1094h1.7656c0.51953 0 0.92188 0.11719 1.2031 0.34375 0.28125 0.23047 0.42188 0.5625 0.42188 1 0 0.42969-0.14062 0.76172-0.42188 1-0.28125 0.23047-0.68359 0.34375-1.2031 0.34375h-0.70312v1.4219h-1.0625zm1.0625 0.76562v1.1562h0.59375c0.19531 0 0.35156-0.050781 0.46875-0.15625 0.11328-0.10156 0.17188-0.24219 0.17188-0.42188 0-0.1875-0.058594-0.32812-0.17188-0.42188-0.11719-0.10156-0.27344-0.15625-0.46875-0.15625z"/>
  </symbol>
  <symbol id="l" overflow="visible">
   <path d="m0.46875-3.0781h0.98438v3.0156c0 0.41406-0.10156 0.73438-0.29688 0.95312-0.19922 0.21875-0.48438 0.32812-0.85938 0.32812h-0.48438v-0.65625h0.17188c0.1875 0 0.3125-0.042969 0.375-0.125 0.070313-0.085938 0.10938-0.25 0.10938-0.5zm0-1.2031h0.98438v0.79688h-0.98438z"/>
  </symbol>
 </defs>
 <g>
  <path d="m530.64 285.29c-2.4141 2.4141-5.6211 3.7422-9.0312 3.7422-3.4102 0-6.6211-1.3281-9.0312-3.7422l-2.6445-2.6445-12.773 12.773 2.6445 2.6445c5.8242 5.8242 13.57 9.0312 21.805 9.0312s15.98-3.207 21.805-9.0312l2.6445-2.6445-12.773-12.773z"/>
  <path d="m503.55 243.87c0 4.9883-4.043 9.0312-9.0312 9.0312s-9.0312-4.043-9.0312-9.0312c0-4.9883 4.043-9.0312 9.0312-9.0312s9.0312 4.043 9.0312 9.0312"/>
  <path d="m557.74 243.87c0 4.9883-4.043 9.0312-9.0312 9.0312-4.9883 0-9.0352-4.043-9.0352-9.0312 0-4.9883 4.0469-9.0312 9.0352-9.0312 4.9883 0 9.0312 4.043 9.0312 9.0312"/>
  <path d="m602.9 289.03c14.941 0 27.098-12.156 27.098-27.098 0-10.25-5.7227-19.188-14.137-23.789l7.0117-14.02c4.6602-9.3242 7.125-19.758 7.125-30.184 0-35.781-27.992-65.133-63.227-67.34v-9.1836c0-24.902-20.258-45.16-45.16-45.16-24.902 0-45.16 20.258-45.16 45.16v9.1797c-13.223 0.82812-25.422 5.4805-35.508 12.863-1.5039-1.7969-3.1602-3.4492-4.9688-4.9141l7.3203-18.293c4.0234-10.059 6.0625-20.652 6.0625-31.484-0.003906-46.742-38.031-84.77-84.773-84.77h-65.301c-39.223 0-72.297 26.781-81.926 63.016-14.059-5.7891-29.211-8.8203-44.441-8.8203h-10.859c-50.762 0-92.059 41.297-92.059 92.059 0 20.879 7.0547 40.941 19.941 57.184-1.207 3.2656-1.875 6.7734-1.875 10.406 0 16.559 13.469 30.027 30.027 30.027h1.1445c4.6367 0 9.2812-1.0977 13.43-3.1719l0.019531-0.007813c10.539 16.789 28.305 27.895 48.109 29.938l4.7969 14.387-8.8477 5.3086c-21.273 12.762-34.488 36.102-34.488 60.906 0 7.6484 1.2266 15.203 3.6445 22.461l12.738 38.207c6.1992 18.602 21.125 32.422 39.328 37.543 4.9922 25.938 22.031 48.102 45.602 59.699l-2.7305 2.7305c-5.3242 5.3242-8.2578 12.406-8.2578 19.934 0 15.547 12.645 28.195 28.191 28.195h369.23v-153.55c0-12.027-2.9336-23.633-8.5234-34.055 5.2344-4.8164 8.5234-11.719 8.5234-19.375 0-9.1953-4.8984-17.848-12.785-22.582l-28.359-17.016c-2.7031-1.6211-5.5625-2.9336-8.5234-3.9414 4.4102-6.2617 7.8086-13.156 10.098-20.449zm0-18.062h-9.1562c0.082031-1.4141 0.125-2.8359 0.125-4.2656v-13.801h9.0312c4.9805 0 9.0312 4.0508 9.0312 9.0312 0 4.9805-4.0508 9.0352-9.0312 9.0352zm-45.898 37.715c-10.098 3.6875-17.328 13.387-17.328 24.746 0 9.1953 4.8984 17.848 12.785 22.582l8.2383 4.9453c-8.2461 11.484-21.465 18.398-35.953 18.398-15.492 0-30.066-8.2539-38.035-21.535l-2.7734-4.625c11.512-4.2422 19.609-15.379 19.609-28.035v-5.582l-4.9922-2.4961c-19.203-9.6016-31.137-28.906-31.137-50.379v-36.633c0-10.328 5.7383-19.617 14.98-24.234l16.039-8.0195c16.539 13.215 36.605 21.836 57.836 24.488l19.531 2.4414v41.957c0 16.102-6.8398 31.293-18.801 41.98zm54.93-114.74c0 7.6328-1.8047 15.277-5.2188 22.105l-9.3945 18.793h-3.4492v-18.066c0-20.102-12.812-37.879-31.883-44.234l-1.3906-0.46484-5.7148 17.137 1.3906 0.46484c8.2031 2.7344 14.512 8.9141 17.547 16.617l-15.309-1.9141c-26.062-3.2578-50.047-17.176-65.805-38.188l-14.453 10.84c1.9648 2.6211 4.043 5.1406 6.2148 7.5703l-10.148 5.0742c-15.398 7.7031-24.965 23.18-24.965 40.395v4.7695h-3.4492l-9.3984-18.793c-3.4141-6.8281-5.2188-14.473-5.2188-22.105 0-27.254 22.172-49.426 49.426-49.426h81.793c27.254 0 49.426 22.172 49.426 49.426zm-312.09 32.82c-19.207-9.6055-31.137-28.906-31.137-50.383v-61.484c11.578-3.8594 22.469-9.8359 31.977-17.504l9.2383 27.715 22.008-22.012 22.012 22.012 9.2383-27.715c9.5078 7.668 20.395 13.641 31.977 17.504v61.484c0 21.473-11.93 40.777-31.137 50.379l-4.9922 2.5v31.566l-2.1914 8.7617c-2.8594 11.449-13.102 19.445-24.906 19.445-11.801 0-22.043-7.9961-24.906-19.445l-2.1914-8.7617v-31.566zm-40.91 40.598-5.8867-11.777c8.5391-7.2266 15.152-16.332 19.375-26.551 4.2539 4.2344 9.0547 7.9883 14.348 11.148v14.75c-9.8203 2.8711-19.184 7.0742-27.836 12.43zm-8.293-122.84v31.863c0 1.4297 0.046875 2.8516 0.12891 4.2656h-0.12891c-9.9609 0-18.066-8.1055-18.066-18.066 0.003906-9.957 8.1055-18.062 18.066-18.062zm162.58 31.863v-31.863c5.8828 0 11.305 2.8945 14.648 7.5156-6.5117 8.1953-11.176 17.922-13.316 28.555-0.44141 0.03125-0.88672 0.058593-1.332 0.058593h-0.12891c0.082032-1.4141 0.12891-2.8359 0.12891-4.2656zm-3.3906 22.332h3.3906c0.0625 0 0.125-0.003907 0.19141-0.003907 0.63281 8.8125 2.9844 17.52 6.9336 25.418l7.0117 14.02c-8.418 4.6055-14.137 13.543-14.137 23.789 0 0.10547 0.007813 0.20703 0.007813 0.30859l-5.0234-3.0156c-6.8984-4.1406-14.797-6.3281-22.844-6.3281-2.8867 0-5.668 0.47266-8.2695 1.3359v-14.059c15.875-9.4766 27.371-24.258 32.738-41.465zm-24.469 72.258c4.7734 0 9.457 1.2969 13.547 3.7539l28.359 17.016c2.4766 1.4844 4.0156 4.2031 4.0156 7.0898 0 4.5586-3.7109 8.2695-8.2695 8.2695-4.7734 0-9.457-1.2969-13.547-3.7539l-28.359-17.016c-2.4766-1.4844-4.0156-4.2031-4.0156-7.0898 0-4.5586 3.7109-8.2695 8.2695-8.2695zm54.957 0c-4.9805 0-9.0312-4.0508-9.0312-9.0312s4.0508-9.0312 9.0312-9.0312h9.0312v13.801c0 1.4297 0.046875 2.8516 0.125 4.2656zm81.289-180.64c14.941 0 27.098 12.156 27.098 27.098v9.0312h-54.195v-9.0312c0-14.941 12.156-27.098 27.098-27.098zm-222.33-72.258h65.301c36.781 0 66.703 29.922 66.703 66.703 0 8.5234-1.6055 16.859-4.7695 24.773l-6.9961 17.488c-2.0586-0.37109-4.1602-0.57812-6.2969-0.57812v-11.555c0-7.7852-4.9648-14.676-12.352-17.137-12.363-4.1211-23.77-11.172-32.984-20.387l-12.805-12.805-9.0312 27.098-14.121-14.117-14.117 14.117-9.0312-27.098-12.805 12.805c-9.2148 9.2148-20.621 16.266-32.984 20.387-7.3867 2.4609-12.352 9.3477-12.352 17.137v11.555c-2.1523 0-4.2578 0.19922-6.3047 0.5625l-6.9883-17.469c-3.1641-7.918-4.7695-16.254-4.7695-24.777 0-36.781 29.922-66.703 66.703-66.703zm-137.23 54.191h10.859c14.375 0 28.668 3.1914 41.68 9.2578-0.039062 1.082-0.082031 2.1602-0.082031 3.2539 0 10.258 1.8516 20.297 5.4648 29.875-0.53516-0.32031-1.0859-0.62109-1.6484-0.90234l-8.8086-4.4023-8.0781 16.156 8.8047 4.4023c2.6289 1.3164 4.2656 3.9609 4.2656 6.8984 0 4.2539-3.4609 7.7148-7.7148 7.7148-5.375 0-10.758-1.2695-15.566-3.6758l-12.977-6.4883c-0.82422-8.8281-6.0703-16.582-14.121-20.609l-8.8086-4.4023-8.0781 16.156 8.8047 4.4023c2.6289 1.3164 4.2656 3.9609 4.2656 6.8984 0 4.2539-3.4609 7.7148-7.7148 7.7148l-15.09 0.007813c-17.309 0-31.387 14.078-31.387 31.387 0 3.3594 0.52734 6.6406 1.5664 9.793-2.1992 0.8125-4.2617 1.8555-6.1602 3.1094-8.7305-12.402-13.469-27.203-13.469-42.551 0-40.801 33.191-73.996 73.992-73.996zm-42.82 153.55h-1.1445c-6.5977 0-11.965-5.3633-11.965-11.961 0-5.1562 3.2891-9.7188 8.1797-11.352l0.58984-0.19531 9.8516 22.168-0.16406 0.082031c-1.6523 0.82422-3.5 1.2578-5.3477 1.2578zm25.633-0.55078-19.531-43.941c-0.76172-1.7148-1.1484-3.5352-1.1484-5.4102 0.003906-7.3477 5.9766-13.32 13.324-13.32h15.094c8.4922 0 16.039-4.1328 20.738-10.488l9.8086 4.9062c7.3047 3.6523 15.48 5.582 23.645 5.582 2.6953 0 5.2969-0.41797 7.7461-1.1914-0.015625 0.39453-0.03125 0.78906-0.03125 1.1914 0 19.922 16.207 36.129 36.129 36.129h3.3906c1.2969 4.1641 2.9531 8.1875 4.9453 12.027-2.332 14.133-10.375 26.648-22.379 34.652l-6.6328 4.4219 14.219 28.438c-5.0234 4.3711-9.6836 9.1836-13.883 14.418-1.3984 1.7422-2.7188 3.5352-4.0039 5.3516-0.39844 0.027344-0.80078 0.046875-1.1992 0.046875-4.4102 0-8.5586-1.7188-11.676-4.8359l-9.0742-9.0742-10.422-31.254h-6.5117c-18.379 0-35.082-10.852-42.547-27.648zm41.164 80.562 9.0156-5.4102 5.5938 5.5938c4.4219 4.4219 9.8281 7.4922 15.723 9.0195-3.0703 6.5039-5.5391 13.281-7.3281 20.242-1.8477-2.6484-3.9062-5.1523-6.207-7.4531l-12.773 12.773c4.3633 4.3633 7.543 9.75 9.3008 15.645l-36.719 10.492c-1.5312-5.0234-2.3164-10.227-2.3164-15.488 0-18.496 9.8516-35.898 25.711-45.414zm-10.258 100.37-7.4375-22.309 35.465-10.133 1.1406 4.5586-7.5391 15.074 16.156 8.0781 6.8711-13.742 72.258-9.0312 5.0234-10.047c2.2656-4.5352 6.8242-7.3516 11.895-7.3516 7.332 0 13.297 5.9648 13.297 13.297 0 10.211-6.0898 19.348-15.52 23.277l-78.258 32.605c-4.9023 2.043-10.078 3.0781-15.391 3.0781-17.25 0.003906-32.508-10.988-37.961-27.355zm41.234 45.324c6.5625-0.36719 12.961-1.8242 19.062-4.3672l14.57-6.0703v51.41c-16.391-8.3672-28.625-23.297-33.633-40.973zm33.633 80.297c0-2.707 1.0547-5.25 2.9648-7.1602l6.8398-6.8398c5.3242-5.3242 8.2578-12.406 8.2578-19.934l0.003907-64.328 45.625-19.008c16.176-6.7422 26.633-22.426 26.633-39.953 0-17.293-14.07-31.359-31.363-31.359-11.957 0-22.703 6.6445-28.051 17.336l-0.69922 1.3984-12.188 1.5234c-0.38281-10.07-4.4766-19.48-11.641-26.645l-12.773 12.773c4.1172 4.1172 6.3867 9.5938 6.3867 15.418v0.70312l-27.098 3.3867v-5.8516c0-41.801 26.621-77.738 65.727-90.219l0.22656 0.91406c4.8828 19.508 22.332 33.133 42.438 33.133 12.219 0 23.445-5.0352 31.477-13.359 2.1406 3.2461 4.9922 6.0312 8.4062 8.0781l28.359 17.016c6.8984 4.1406 14.797 6.3281 22.844 6.3281 14.523 0 26.336-11.812 26.336-26.332 0-3.3984-0.67188-6.7188-1.9141-9.7969h5.3047c5.2539 16.844 16.379 31.363 31.734 40.863-1.6094 3.6328-5.0039 6.3555-9.125 6.9453-30.27 4.3242-53.098 30.645-53.098 61.223v143.87h-161.48c-5.5859 0-10.129-4.543-10.129-10.125zm208.27-80.195c0.41797 3.7734 1.0781 7.5156 2 11.199 4.0508 16.207 3.7695 33.262-0.82031 49.324l-8.5156 29.797h-11.25v-90.324zm141.77 90.32-8.5117-29.797c-4.5898-16.062-4.875-33.117-0.82031-49.324 0.92188-3.6836 1.582-7.4297 2-11.199h18.582v90.324zm11.25-135.48v27.098h-18.535c-1.0625-10.066-3.9219-19.953-8.4453-29.004l-1.0664-2.1367-16.156 8.082 1.0664 2.1328c4.5859 9.1719 7.0117 19.441 7.0117 29.699 0 5.4258-0.66797 10.844-1.9844 16.105-4.8203 19.277-4.4805 39.562 0.97656 58.668l7.0938 24.836h-111.54l7.0977-24.836c5.457-19.105 5.7969-39.395 0.97656-58.668-1.3164-5.2617-1.9844-10.684-1.9844-16.105 0-10.258 2.4258-20.527 7.0117-29.699l1.0664-2.1367-16.156-8.082-1.0664 2.1367c-4.5234 9.0469-7.3867 18.934-8.4453 29l-18.535 0.007812v-35.488c0-17.367 10.41-32.789 25.59-39.789l5.3047 8.8398c11.219 18.695 31.727 30.305 53.527 30.305 20.914 0 39.969-10.215 51.5-27.137l4.5742 2.7461c6.8984 4.1406 14.797 6.3281 22.844 6.3281 0.33594 0 0.66406-0.011719 0.99609-0.023438 4.7695 8.2109 7.2734 17.48 7.2734 27.121zm-4.0117-60.523c2.4766 1.4844 4.0156 4.2031 4.0156 7.0898 0 4.5586-3.7109 8.2695-8.2695 8.2695-4.7734 0-9.457-1.2969-13.547-3.7539l-28.359-17.016c-2.4766-1.4844-4.0156-4.2031-4.0156-7.0898 0-4.5586 3.7109-8.2695 8.2695-8.2695 4.7734 0 9.457 1.2969 13.547 3.7539z"/>
  <path d="m304.84 135.48c0 4.9883-4.0469 9.0312-9.0352 9.0312-4.9883 0-9.0312-4.043-9.0312-9.0312s4.043-9.0312 9.0312-9.0312c4.9883 0 9.0352 4.043 9.0352 9.0312"/>
  <path d="m377.1 135.48c0 4.9883-4.043 9.0312-9.0312 9.0312-4.9922 0-9.0352-4.043-9.0352-9.0312s4.043-9.0312 9.0352-9.0312c4.9883 0 9.0312 4.043 9.0312 9.0312"/>
  <path d="m331.93 216.77c14.586 0 27.699-8.1055 34.223-21.148l0.95312-1.9062-16.156-8.082-0.95312 1.9062c-3.4453 6.8867-10.367 11.164-18.066 11.164-7.6992 0-14.621-4.2773-18.066-11.168l-0.95313-1.9062-16.156 8.082 0.95313 1.9062c6.5234 13.051 19.637 21.152 34.223 21.152z"/>
  <path d="m345.01 163.54-11.059-5.5312 6.5547-19.664-17.137-5.7109-11.512 34.527 25.074 12.535z"/>
  <path d="m196.45 207.74v-23.648l-23.059-11.527-8.0781 16.156 13.07 6.5352v12.484z"/>
  <path d="m187.42 225.8v18.066h6.8984c15.902 0 30.195-8.8359 37.309-23.059l-16.156-8.0781c-4.0312 8.0625-12.133 13.07-21.148 13.07z"/>
  <use x="70" y="576.933594" xlink:href="#u"/>
  <use x="74.144531" y="576.933594" xlink:href="#c"/>
  <use x="76.925781" y="576.933594" xlink:href="#a"/>
  <use x="80.753906" y="576.933594" xlink:href="#f"/>
  <use x="84.566406" y="576.933594" xlink:href="#b"/>
  <use x="87.261719" y="576.933594" xlink:href="#a"/>
  <use x="91.09375" y="576.933594" xlink:href="#k"/>
  <use x="97.097656" y="576.933594" xlink:href="#j"/>
  <use x="101.140625" y="576.933594" xlink:href="#e"/>
  <use x="106.785156" y="576.933594" xlink:href="#i"/>
  <use x="110.640625" y="576.933594" xlink:href="#h"/>
  <use x="114.660156" y="576.933594" xlink:href="#g"/>
  <use x="118.007812" y="576.933594" xlink:href="#f"/>
  <use x="121.816406" y="576.933594" xlink:href="#t"/>
  <use x="123.75" y="576.933594" xlink:href="#e"/>
  <use x="127.429688" y="576.933594" xlink:href="#s"/>
  <use x="70" y="582.582031" xlink:href="#r"/>
  <use x="72.457031" y="582.582031" xlink:href="#c"/>
  <use x="75.238281" y="582.582031" xlink:href="#d"/>
  <use x="79.117188" y="582.582031" xlink:href="#q"/>
  <use x="86.964844" y="582.582031" xlink:href="#b"/>
  <use x="89.664063" y="582.582031" xlink:href="#p"/>
  <use x="93.683594" y="582.582031" xlink:href="#a"/>
  <use x="99.476562" y="582.582031" xlink:href="#o"/>
  <use x="104.203125" y="582.582031" xlink:href="#d"/>
  <use x="108.078125" y="582.582031" xlink:href="#h"/>
  <use x="112.097656" y="582.582031" xlink:href="#n"/>
  <use x="118.082031" y="582.582031" xlink:href="#m"/>
  <use x="122.21875" y="582.582031" xlink:href="#c"/>
  <use x="125.003906" y="582.582031" xlink:href="#d"/>
  <use x="128.882812" y="582.582031" xlink:href="#l"/>
  <use x="130.816406" y="582.582031" xlink:href="#a"/>
  <use x="134.644531" y="582.582031" xlink:href="#g"/>
  <use x="137.992188" y="582.582031" xlink:href="#b"/>
 </g>
</svg>
