<svg width="125" height="125" viewBox="0 0 125 125" fill="none" xmlns="http://www.w3.org/2000/svg">
<rect width="125" height="125" rx="62.5" fill="#BCD9ED"/>
<path d="M51.031 40.3411C48.8734 39.5521 44.3424 39.631 43.4794 46.2588C42.4005 54.5435 43.4799 75.8467 43.4794 81.7641C43.479 85.5068 44.5571 87.6819 49.9526 88.8653C55.3467 90.0483 82.7962 93.5848 82.3168 84.1312C81.2365 62.8279 87.7108 39.1572 74.7651 40.3407M54.5625 69.1254C54.8467 71.184 58.8477 79.9488 60.673 75.0151C62.852 69.1254 64.9243 63.0255 74.25 57.2505M56.7953 36.6014C61.2688 34.4784 70.4499 35.4746 70.4499 39.1572C70.4499 43.8913 70.4499 45.075 66.1347 45.075C61.8195 45.075 57.5042 46.2585 56.4254 43.8914C55.4349 41.718 55.3538 38.5464 56.1824 37.126C56.3212 36.888 56.5464 36.7196 56.7953 36.6014Z" stroke="#264A64" stroke-width="2" stroke-linecap="round"/>
</svg>
