<svg width="125" height="125" viewBox="0 0 125 125" fill="none" xmlns="http://www.w3.org/2000/svg">
<rect width="125" height="125" rx="62.5" fill="#264A64"/>
<path d="M66.9494 35.7045C65.4606 35.4667 64.2012 35.4528 63.1497 35.5782C62.0129 35.7137 61.1191 36.0118 60.4409 36.3652C59.8658 36.665 59.4458 37.0045 59.1642 37.3184C59.0253 37.4732 58.9201 37.6219 58.8466 37.7564L58.4663 38.4682L58.1024 39.1493L57.7384 39.8304L57.2624 40.7213L56.6364 41.893L56.1061 42.8855L55.7553 43.5421C55.7019 43.6421 55.7772 43.7606 55.8944 43.7585C60.1072 43.6821 68.7176 45.1813 71.401 50.796C71.4558 50.9107 71.6278 50.9172 71.6866 50.8043L72.2271 49.7682L72.4532 49.3346L72.7806 48.6912L73.3822 47.5089L73.8956 46.5L74.1752 45.9506L74.4548 45.4011L74.7121 44.8954L74.9695 44.3896L75.4842 43.3781C75.5013 43.3444 75.5049 43.3072 75.493 43.2715C75.2479 42.5364 74.7867 41.5472 74.0942 40.5234C72.6965 38.4567 70.3565 36.2489 66.9494 35.7045Z" fill="white"/>
<path d="M48.7557 90.2738H85.5M40.5 82.6033V89.9958C40.9892 91.1683 42.1384 89.9958 42.7932 89.4916L48.7557 85.5345M54.4124 81.578L41.7131 90.2738C41.2053 90.6215 40.5 90.2735 40.5 89.6753V73.6638M48 66.75L54.4124 54.25M60.5 53L50.5 71.75M63 58L56.6364 70.5M53.7524 47.661L40.9555 72.6393C40.8974 72.7528 41.0058 72.8813 41.1349 72.8552C43.0525 72.4661 46.3366 72.6712 46.6018 76.1811C46.6105 76.2963 46.7458 76.3661 46.8488 76.3061C48.5374 75.3221 51.4298 74.6088 51.3671 78.6013C51.3651 78.7295 51.5229 78.8084 51.6297 78.7311C53.1238 77.6506 55.5889 76.7235 55.7806 80.0218C55.7897 80.1795 56.0263 80.235 56.099 80.0932L68.9889 55.5596M53.7524 47.661L55.4828 44.2051M53.7524 47.661C53.7039 47.758 53.7803 47.8706 53.8925 47.8727C63.8266 48.0587 67.8685 52.8436 68.6816 55.5247C68.7221 55.6582 68.9208 55.6824 68.9889 55.5596M68.9889 55.5596L71.3827 51.24M58.8466 37.7564L58.4663 38.4682M58.8466 37.7564C58.9201 37.6219 59.0253 37.4732 59.1642 37.3184M58.8466 37.7564C62.2058 37.8512 70.0818 39.4117 74.7121 44.8954M75.493 43.2715C75.5049 43.3072 75.5013 43.3444 75.4842 43.3781L74.9695 44.3896M75.493 43.2715C71.0963 38.0742 63.6263 36.5018 60.4409 36.3652M75.493 43.2715C75.2479 42.5364 74.7867 41.5472 74.0942 40.5234M56.1061 42.8855L55.7553 43.5421C55.7019 43.6421 55.7772 43.7606 55.8944 43.7585C60.1072 43.6821 68.7176 45.1813 71.401 50.796C71.4558 50.9107 71.6278 50.9172 71.6866 50.8043L72.2271 49.7682M56.1061 42.8855C59.9027 42.6025 68.442 43.5828 72.2271 49.7682M56.1061 42.8855L56.6364 41.893M72.2271 49.7682L72.4532 49.3346L72.7806 48.6912M56.6364 41.893C60.1391 41.6811 68.2717 42.7442 72.7806 48.6912M56.6364 41.893L57.2624 40.7213M72.7806 48.6912L73.3822 47.5089M57.2624 40.7213C60.4715 40.5701 68.188 41.716 73.3822 47.5089M57.2624 40.7213L57.7384 39.8304M73.3822 47.5089L73.8956 46.5M57.7384 39.8304C61.131 39.7619 69.1121 41 73.8956 46.5M57.7384 39.8304L58.1024 39.1493M73.8956 46.5L74.1752 45.9506M58.4663 38.4682C61.989 38.5795 70.1186 40.122 74.4548 45.4011M58.4663 38.4682L58.1024 39.1493M74.4548 45.4011L74.1752 45.9506M74.4548 45.4011L74.7121 44.8954M59.1642 37.3184C62.7975 37.4407 71.045 39.0262 74.9695 44.3896M59.1642 37.3184C59.4458 37.0045 59.8658 36.665 60.4409 36.3652M74.9695 44.3896L74.7121 44.8954M60.4409 36.3652C61.1191 36.0118 62.0129 35.7137 63.1497 35.5782M63.1497 35.5782C64.2012 35.4528 65.4606 35.4667 66.9494 35.7045C70.3565 36.2489 72.6965 38.4567 74.0942 40.5234M63.1497 35.5782C65.525 35.9378 71.0394 37.4304 74.0942 40.5234M58.1024 39.1493C61.3517 39.0666 69.1153 40.311 74.1752 45.9506" stroke="white" stroke-width="2" stroke-linecap="round"/>
</svg>
