<svg width="125" height="125" viewBox="0 0 125 125" fill="none" xmlns="http://www.w3.org/2000/svg">
<rect width="125" height="125" rx="62.5" fill="#BCD9ED"/>
<path d="M85.8516 36.7307C76.5755 34.9129 47.5984 35.2766 39.25 36.7309M89.3301 38.5487C89.8438 54.1197 90.74 81.8596 90.4389 90.4998M88 90.5C84.4687 86.9537 51.6136 86.0669 44.551 86.0669C37.4885 86.0669 35.6733 87.2022 36.6056 82.5206C37.3715 78.6753 36.8138 53.7037 35.5 37.6997M73 55.4996C73 50.5 77.8928 46.534 80.5 51.7496C81.75 54.2502 84.25 80.5 78 80.4992C76.75 80.5 73 80.5002 73 75.5002V55.4996ZM45.5 66.4807C45.5 63.677 49.5492 61.4529 51.7069 64.3778C52.7414 65.78 54.8103 80.5004 49.6379 80.5C48.6034 80.5004 45.5 80.5005 45.5 77.6966V66.4807ZM58 50.4586C58 44.4507 63.399 39.6849 66.2759 45.9523C67.6552 48.9572 70.4138 80.5009 63.5172 80.5C62.1379 80.5009 58 80.5011 58 74.4927V50.4586Z" stroke="#264A64" stroke-width="2" stroke-linecap="round"/>
</svg>
