<svg width="125" height="125" viewBox="0 0 125 125" fill="none" xmlns="http://www.w3.org/2000/svg">
<rect width="125" height="125" rx="62.5" fill="#264A64"/>
<path d="M44.9157 46.8886C46.1806 48.1773 47.9659 48.9804 49.9444 48.9804C53.7798 48.9804 56.8889 45.9627 56.8889 42.2402C56.8889 38.5177 53.7798 35.5 49.9444 35.5C47.4149 35.5 45.2012 36.8127 43.9871 38.7745C42.9207 40.4977 41.3211 42.2402 39.25 42.2402C37.1789 42.2402 35.5 43.8697 35.5 45.8799V86.752C35.5 88.822 37.2289 90.5 39.3616 90.5H86.6384C88.7711 90.5 90.5 88.822 90.5 86.752V45.9882C90.5 43.9182 88.7711 42.2402 86.6384 42.2402H83.2778M71.0271 46.8886C72.292 48.1773 74.0773 48.9804 76.0559 48.9804C79.8912 48.9804 83.0003 45.9627 83.0003 42.2402C83.0003 38.5177 79.8912 35.5 76.0559 35.5C73.5662 35.5 71.3826 36.7716 70.1568 38.6821C69.0294 40.4392 67.3825 42.2402 65.2499 42.2402H57.167M41.0555 56.5292H90.2222M55.1891 70.2516C55.3619 67.1624 61.417 64.2921 62.3374 69.4722C62.9012 72.6451 59.7449 76.0695 55.0454 78.8696C54.1101 79.4269 54.4179 80.8973 55.4959 80.8889L62.9124 80.831M67.3174 68.7549L70.1156 65.9646C70.7596 65.3223 71.8654 65.6911 71.8537 66.5442L71.8537 80.8889" stroke="white" stroke-width="2" stroke-linecap="round"/>
</svg>
