<svg width="125" height="125" viewBox="0 0 125 125" fill="none" xmlns="http://www.w3.org/2000/svg">
<rect width="125" height="125" rx="62.5" fill="#264A64"/>
<rect width="60" height="60" transform="translate(33 33)" fill="#264A64"/>
<path d="M61.7422 65.7754C62.1068 65.7257 70.9336 64.6444 70.5659 57.104C70.5322 56.4111 70.4381 55.7809 70.2918 55.2096M61.7422 65.7754C66.5803 65.4818 69.0387 63.7414 70.1389 61.6555M61.7422 65.7754C61.1569 65.8552 60.5532 65.8489 59.9561 65.762M70.2918 55.2096C70.1087 54.4944 69.8439 53.8715 69.5133 53.3337M70.2918 55.2096C70.9509 56.8863 71.2959 59.4619 70.1389 61.6555M69.5133 53.3337C66.8034 48.9254 59.6766 50.2424 56.9627 53.3337C55.8978 54.5478 53.6661 57.6267 54.7537 61.4753C55.4354 63.8878 57.6473 65.4263 59.9561 65.762M69.5133 53.3337C70.5445 54.6641 72.0406 57.7795 70.7615 60.6048M70.1389 61.6555C70.3949 61.3126 70.6003 60.961 70.7615 60.6048M59.9561 65.762C63.009 66.2498 69.4441 65.9011 70.7615 60.6048M77.7725 75.9045L78.4289 77.1101C79.2225 78.5677 79.5831 80.2585 78.8575 81.7457M77.7725 75.9045C76.3503 73.2922 73.443 71.6421 70.2628 71.6421H55.4527C52.2725 71.6421 49.3652 73.2922 47.943 75.9045L47.6209 76.4961C46.6251 78.3252 46.3814 80.4849 47.4287 82.2896C50.625 87.7979 56.1515 90.1545 61.7422 90.2956M77.7725 75.9045C79.232 79.7947 78.0694 88.1192 61.7422 90.2956M78.8575 81.7457C76.3173 86.9521 68.976 90.4783 61.7422 90.2956M78.8575 81.7457C78.1498 85.1965 73.736 91.7376 61.7422 90.2956M46.2068 47.0154C46.4671 46.9779 52.7708 46.1627 52.5082 40.4784C52.4841 39.9561 52.4169 39.481 52.3125 39.0504M46.2068 47.0154C49.6618 46.7941 51.4175 45.482 52.2033 43.9096M46.2068 47.0154C45.7887 47.0756 45.3576 47.0708 44.9311 47.0053M52.3125 39.0504C52.1817 38.5112 51.9926 38.0416 51.7565 37.6362M52.3125 39.0504C52.7832 40.3143 53.0296 42.2559 52.2033 43.9096M51.7565 37.6362C49.8212 34.313 44.7315 35.3058 42.7935 37.6362C42.033 38.5514 40.4391 40.8724 41.2158 43.7737C41.7027 45.5924 43.2824 46.7522 44.9311 47.0053M51.7565 37.6362C52.4929 38.6391 53.5614 40.9877 52.6479 43.1175M52.2033 43.9096C52.3861 43.6511 52.5327 43.3861 52.6479 43.1175M44.9311 47.0053C47.1114 47.373 51.7071 47.1102 52.6479 43.1175M48 51.438H41.7151C39.4439 51.438 37.3677 52.6819 36.352 54.6512L36.122 55.0972C35.4108 56.4761 35.2368 58.1041 35.9847 59.4646M79.7933 47.0154C79.5329 46.9779 73.2292 46.1627 73.4918 40.4784C73.5159 39.9561 73.5831 39.481 73.6875 39.0504M79.7933 47.0154C76.3382 46.7941 74.5825 45.482 73.7967 43.9096M79.7933 47.0154C80.2113 47.0756 80.6424 47.0708 81.0689 47.0053M73.6875 39.0504C73.8183 38.5112 74.0074 38.0416 74.2435 37.6362M73.6875 39.0504C73.2168 40.3143 72.9704 42.2559 73.7967 43.9096M74.2435 37.6362C76.1788 34.313 81.2685 35.3058 83.2065 37.6362C83.967 38.5514 85.5609 40.8724 84.7842 43.7737C84.2973 45.5924 82.7176 46.7522 81.0689 47.0053M74.2435 37.6362C73.5071 38.6391 72.4386 40.9877 73.3521 43.1175M73.7967 43.9096C73.6139 43.6511 73.4673 43.3861 73.3521 43.1175M81.0689 47.0053C78.8886 47.373 74.2929 47.1102 73.3521 43.1175M78 51.438H84.2849C86.5561 51.438 88.6323 52.6819 89.648 54.6512L89.878 55.0972C90.5892 56.4761 90.7632 58.1041 90.0153 59.4646" stroke="white" stroke-width="2" stroke-linecap="round"/>
</svg>
